<mxfile host="Electron" modified="2024-06-29T19:15:43.844Z" agent="Mozilla/5.0 (Windows NT 10.0; Win64; x64) AppleWebKit/537.36 (KHTML, like Gecko) draw.io/24.5.3 Chrome/124.0.6367.207 Electron/30.0.6 Safari/537.36" etag="IFcdkes9qR9tR1nUzm9V" version="24.5.3" type="device">
  <diagram name="PÃ¡gina-1" id="2lp4uydA60VJKY2f_2jK">
    <mxGraphModel dx="2210" dy="832" grid="1" gridSize="10" guides="1" tooltips="1" connect="1" arrows="1" fold="1" page="1" pageScale="1" pageWidth="827" pageHeight="1169" background="none" math="0" shadow="0">
      <root>
        <mxCell id="0" />
        <mxCell id="1" parent="0" />
        <mxCell id="lonjhoGg8wPurpXXjPY--60" value="" style="rounded=0;whiteSpace=wrap;html=1;fillColor=#efffcc;strokeColor=#528a3c;shadow=0;glass=0;container=0;" parent="1" vertex="1">
          <mxGeometry x="-20" y="400" width="800" height="580" as="geometry" />
        </mxCell>
        <mxCell id="lonjhoGg8wPurpXXjPY--61" value="GLESC" style="text;html=1;strokeColor=none;fillColor=none;align=center;verticalAlign=middle;whiteSpace=wrap;rounded=0;fontStyle=1;fontSize=22;shadow=0;glass=0;container=0;" parent="1" vertex="1">
          <mxGeometry x="-10" y="410" width="100" height="40" as="geometry" />
        </mxCell>
        <mxCell id="lonjhoGg8wPurpXXjPY--7" value="" style="rounded=0;whiteSpace=wrap;html=1;strokeColor=#b46504;fillColor=#fad7ac;strokeWidth=1;shadow=0;glass=0;container=0;" parent="1" vertex="1">
          <mxGeometry x="10" y="450" width="730" height="500" as="geometry" />
        </mxCell>
        <mxCell id="lonjhoGg8wPurpXXjPY--6" value="ECS" style="text;html=1;strokeColor=none;fillColor=none;align=center;verticalAlign=middle;whiteSpace=wrap;rounded=0;fontStyle=1;fontSize=20;shadow=0;glass=0;container=0;" parent="1" vertex="1">
          <mxGeometry x="10" y="450" width="70.65" height="50" as="geometry" />
        </mxCell>
        <mxCell id="15" value="" style="rounded=0;whiteSpace=wrap;html=1;strokeColor=#d79b00;fillColor=#FFE6C4;fillStyle=auto;strokeWidth=1;shadow=0;glass=0;container=0;" parent="1" vertex="1">
          <mxGeometry x="33.55" y="500" width="682.9" height="130" as="geometry" />
        </mxCell>
        <mxCell id="52" value="" style="rounded=0;whiteSpace=wrap;html=1;strokeColor=#d79b00;fillColor=#E6B891;fontColor=default;fillStyle=auto;strokeWidth=1;shadow=0;glass=0;container=0;" parent="1" vertex="1">
          <mxGeometry x="33.55" y="650" width="682.9" height="268.31" as="geometry" />
        </mxCell>
        <mxCell id="22" value="Systems" style="rounded=0;whiteSpace=wrap;html=1;fillColor=#ffe6cc;strokeColor=#d79b00;shadow=0;glass=0;container=0;fontSize=16;" parent="1" vertex="1">
          <mxGeometry x="510" y="540" width="180" height="45" as="geometry" />
        </mxCell>
        <mxCell id="20" value="Entity" style="rounded=0;whiteSpace=wrap;html=1;fillColor=#ffe6cc;strokeColor=#d79b00;shadow=0;glass=0;container=0;fontSize=16;" parent="1" vertex="1">
          <mxGeometry x="57.1" y="540" width="180" height="45" as="geometry" />
        </mxCell>
        <mxCell id="51" value="Components" style="rounded=0;whiteSpace=wrap;html=1;fillColor=#ffe6cc;strokeColor=#d79b00;shadow=0;glass=0;container=0;fontSize=16;" parent="1" vertex="1">
          <mxGeometry x="285" y="540" width="180" height="45" as="geometry" />
        </mxCell>
        <mxCell id="zg5pfD2hLXmvaDfo4pV3-67" value="Entity Manager" style="rounded=0;whiteSpace=wrap;html=1;fontStyle=1;fontSize=12;shadow=0;glass=0;fillStyle=auto;strokeColor=#A67700;strokeWidth=1;align=center;verticalAlign=middle;fontFamily=Helvetica;fontColor=default;fillColor=#C49E64;" vertex="1" parent="1">
          <mxGeometry x="55" y="760" width="120" height="140" as="geometry" />
        </mxCell>
        <mxCell id="zg5pfD2hLXmvaDfo4pV3-68" value="Component Manager" style="rounded=0;whiteSpace=wrap;html=1;fontStyle=1;fontSize=12;shadow=0;glass=0;fillStyle=auto;strokeColor=#A67700;strokeWidth=1;align=center;verticalAlign=middle;fontFamily=Helvetica;fontColor=default;fillColor=#C2C47A;" vertex="1" parent="1">
          <mxGeometry x="195" y="830" width="360" height="70" as="geometry" />
        </mxCell>
        <mxCell id="zg5pfD2hLXmvaDfo4pV3-69" value="System Manager" style="rounded=0;whiteSpace=wrap;html=1;fontStyle=1;fontSize=12;shadow=0;glass=0;fillStyle=auto;strokeColor=#A67700;strokeWidth=1;align=center;verticalAlign=middle;fontFamily=Helvetica;fontColor=default;fillColor=#C4766A;" vertex="1" parent="1">
          <mxGeometry x="575" y="770" width="120" height="130" as="geometry" />
        </mxCell>
        <mxCell id="zg5pfD2hLXmvaDfo4pV3-70" value="&lt;font color=&quot;#ffffff&quot; style=&quot;font-size: 17px;&quot;&gt;ECS Coordinator (Interface)&lt;/font&gt;" style="rounded=0;whiteSpace=wrap;html=1;fontStyle=1;fontSize=17;shadow=0;glass=0;fillStyle=auto;strokeColor=#805C00;strokeWidth=1;align=center;verticalAlign=middle;fontFamily=Helvetica;fontColor=default;labelBackgroundColor=none;fillColor=#AD8B6D;" vertex="1" parent="1">
          <mxGeometry x="55" y="690" width="640" height="60" as="geometry" />
        </mxCell>
        <mxCell id="zg5pfD2hLXmvaDfo4pV3-71" value="" style="shape=flexArrow;endArrow=classic;startArrow=classic;html=1;rounded=0;fillColor=#AD8B6D;strokeColor=#805C00;shadow=0;glass=0;fillStyle=auto;strokeWidth=1;align=center;verticalAlign=middle;fontFamily=Helvetica;fontSize=12;fontColor=default;edgeStyle=orthogonalEdgeStyle;" edge="1" parent="1" source="zg5pfD2hLXmvaDfo4pV3-68" target="zg5pfD2hLXmvaDfo4pV3-70">
          <mxGeometry width="100" height="100" relative="1" as="geometry">
            <mxPoint x="369.71" y="830" as="sourcePoint" />
            <mxPoint x="369.71" y="750" as="targetPoint" />
          </mxGeometry>
        </mxCell>
        <mxCell id="zg5pfD2hLXmvaDfo4pV3-72" value="" style="shape=flexArrow;endArrow=classic;startArrow=classic;html=1;rounded=0;fillColor=#AD8B6D;strokeColor=#805C00;shadow=0;glass=0;fillStyle=auto;strokeWidth=1;align=center;verticalAlign=middle;fontFamily=Helvetica;fontSize=12;fontColor=default;edgeStyle=orthogonalEdgeStyle;" edge="1" parent="1" source="zg5pfD2hLXmvaDfo4pV3-67" target="zg5pfD2hLXmvaDfo4pV3-70">
          <mxGeometry width="100" height="100" relative="1" as="geometry">
            <mxPoint x="170" y="800" as="sourcePoint" />
            <mxPoint x="220" y="750" as="targetPoint" />
            <Array as="points">
              <mxPoint x="270" y="800" />
            </Array>
          </mxGeometry>
        </mxCell>
        <mxCell id="zg5pfD2hLXmvaDfo4pV3-73" value="" style="shape=flexArrow;endArrow=classic;startArrow=classic;html=1;rounded=0;fillColor=#AD8B6D;strokeColor=#805C00;shadow=0;glass=0;fillStyle=auto;strokeWidth=1;align=center;verticalAlign=middle;fontFamily=Helvetica;fontSize=12;fontColor=default;labelBackgroundColor=none;edgeStyle=orthogonalEdgeStyle;" edge="1" parent="1" source="zg5pfD2hLXmvaDfo4pV3-69" target="zg5pfD2hLXmvaDfo4pV3-70">
          <mxGeometry width="100" height="100" relative="1" as="geometry">
            <mxPoint x="570" y="800" as="sourcePoint" />
            <mxPoint x="520" y="750" as="targetPoint" />
            <Array as="points">
              <mxPoint x="500" y="800" />
            </Array>
          </mxGeometry>
        </mxCell>
        <mxCell id="50" value="&lt;font style=&quot;font-size: 20px;&quot;&gt;OOP ECS Interface&lt;/font&gt;" style="text;html=1;strokeColor=none;fillColor=none;align=center;verticalAlign=middle;whiteSpace=wrap;rounded=0;fontStyle=1;fontSize=20;shadow=0;glass=0;fontColor=#000000;container=0;" parent="1" vertex="1">
          <mxGeometry x="33.55" y="500" width="282.58" height="40" as="geometry" />
        </mxCell>
        <mxCell id="zg5pfD2hLXmvaDfo4pV3-75" value="" style="shape=flexArrow;endArrow=classic;html=1;rounded=0;shadow=0;glass=0;fillStyle=auto;strokeColor=#805C00;strokeWidth=1;align=center;verticalAlign=middle;fontFamily=Helvetica;fontSize=17;fontColor=default;fontStyle=1;labelBackgroundColor=none;fillColor=#AD8B6D;edgeStyle=orthogonalEdgeStyle;" edge="1" parent="1" source="zg5pfD2hLXmvaDfo4pV3-70" target="51">
          <mxGeometry width="50" height="50" relative="1" as="geometry">
            <mxPoint x="373.81" y="690" as="sourcePoint" />
            <mxPoint x="373.81" y="630" as="targetPoint" />
          </mxGeometry>
        </mxCell>
        <mxCell id="zg5pfD2hLXmvaDfo4pV3-76" value="" style="shape=flexArrow;endArrow=classic;html=1;rounded=0;shadow=0;glass=0;fillStyle=auto;strokeColor=#805C00;strokeWidth=1;align=center;verticalAlign=middle;fontFamily=Helvetica;fontSize=17;fontColor=default;fontStyle=1;labelBackgroundColor=none;fillColor=#AD8B6D;edgeStyle=orthogonalEdgeStyle;" edge="1" parent="1" source="zg5pfD2hLXmvaDfo4pV3-70" target="22">
          <mxGeometry width="50" height="50" relative="1" as="geometry">
            <mxPoint x="463.3" y="670" as="sourcePoint" />
            <mxPoint x="531.5999999999999" y="610" as="targetPoint" />
            <Array as="points">
              <mxPoint x="500" y="640" />
              <mxPoint x="600" y="640" />
            </Array>
          </mxGeometry>
        </mxCell>
        <mxCell id="zg5pfD2hLXmvaDfo4pV3-79" value="" style="shape=flexArrow;endArrow=classic;html=1;rounded=0;shadow=0;glass=0;fillStyle=auto;strokeColor=#805C00;strokeWidth=1;align=center;verticalAlign=middle;fontFamily=Helvetica;fontSize=17;fontColor=default;fontStyle=1;labelBackgroundColor=none;fillColor=#AD8B6D;edgeStyle=orthogonalEdgeStyle;" edge="1" parent="1" source="zg5pfD2hLXmvaDfo4pV3-70" target="20">
          <mxGeometry width="50" height="50" relative="1" as="geometry">
            <mxPoint x="290" y="690" as="sourcePoint" />
            <mxPoint x="186.69" y="630" as="targetPoint" />
            <Array as="points">
              <mxPoint x="270" y="640" />
              <mxPoint x="140" y="640" />
            </Array>
          </mxGeometry>
        </mxCell>
        <mxCell id="zg5pfD2hLXmvaDfo4pV3-80" value="&lt;font style=&quot;font-size: 20px;&quot;&gt;ECS Backend&lt;/font&gt;" style="text;html=1;strokeColor=none;fillColor=none;align=center;verticalAlign=middle;whiteSpace=wrap;rounded=0;fontStyle=1;fontSize=20;shadow=0;glass=0;fontColor=#000000;container=0;" vertex="1" parent="1">
          <mxGeometry x="33.55" y="650" width="196.45" height="40" as="geometry" />
        </mxCell>
      </root>
    </mxGraphModel>
  </diagram>
</mxfile>
